<svg width="150" height="32" viewBox="0 0 150 32" fill="none" xmlns="http://www.w3.org/2000/svg">
<g clip-path="url(#clip0_2012_6979)">
<path d="M15.6742 7.47688H18.6411V10.6266C19.3831 9.32271 20.5752 8.17717 21.9623 7.60954C22.994 7.19821 24.0256 7.06864 25.3793 7.06864V10.277H24.5738C21.4787 10.277 18.8016 12.4365 18.8016 15.9091V24.1819H15.6753L15.6742 7.47688Z" fill="#282643"/>
<path d="M26.9425 19.4722C26.9425 17.9452 27.6198 16.6731 29.0058 15.6859C30.5544 14.6042 33.07 13.9676 38.8412 13.9676H39.8083V13.0134C39.8083 11.0092 38.712 9.6415 35.519 9.6415C32.1019 9.6415 31.0702 11.0729 31.0056 12.2822H27.9095C27.9742 9.99113 29.4894 7.00078 35.5836 7.00078C39.9687 7.00078 42.9679 8.62244 42.9679 14.1589V20.1087C42.9679 21.6039 43.3545 22.0183 44.9343 22.0183V24.404H44.4508C42.2624 24.404 40.4523 23.386 40.1949 21.8589H40.1626C38.8412 23.386 36.1317 24.5326 33.4556 24.5326C28.49 24.5315 26.9425 21.8271 26.9425 19.4722ZM39.8406 18.6496V16.195H38.712C33.9714 16.195 30.0063 16.704 30.0063 19.4722C30.0063 21.0311 31.3276 22.0183 33.9714 22.0183C37.9054 22.0183 39.8406 19.8547 39.8406 18.6454V18.6496Z" fill="#282643"/>
<path d="M47.45 0H50.965V3.27725H47.45V0ZM47.6438 7.47689H50.7701V24.1819H47.6438V7.47689Z" fill="#282643"/>
<path d="M53.7995 7.47689H57.3155L61.6038 18.5827L62.3781 20.3967H62.4427L63.1513 18.5817L67.4719 7.47586H70.9869L63.8599 24.1819H60.8931L53.7995 7.47689Z" fill="#282643"/>
<path d="M71.6465 15.7816C71.6465 10.6266 74.8385 6.96788 80.3199 6.96788C85.1886 6.96788 88.639 9.86362 88.639 14.2864V16.8953L74.8708 16.9271C75.1928 20.0121 77.0592 22.0183 80.4481 22.0183C83.2222 22.0183 84.9948 20.5221 85.5106 19.3447H88.6067C88.2514 21.607 85.6075 24.6919 80.4783 24.6919C74.7093 24.6909 71.6465 20.8409 71.6465 15.7816ZM85.5065 14.4448C85.5065 11.1346 83.1534 9.64048 80.2511 9.64048C77.3812 9.64048 74.8989 11.1346 74.8989 14.4448H85.5065Z" fill="#282643"/>
<path d="M91.8883 0H95.0146V24.1819H91.8883V0Z" fill="#282643"/>
<path d="M98.886 0H102.012V24.1819H98.886V0Z" fill="#282643"/>
<path d="M105.883 0H109.397V3.27725H105.883V0ZM106.076 7.47689H109.203V24.1819H106.076V7.47689Z" fill="#282643"/>
<path d="M113.266 7.4769H116.392V9.99113C117.907 7.70004 120.551 6.96788 122.645 6.96788C126.805 6.96788 129.384 9.76799 129.384 13.6818V24.1819H126.258V14.5404C126.258 11.4863 124.743 9.6415 121.905 9.6415C118.938 9.6415 116.391 11.6457 116.391 15.0823V24.1819H113.265L113.266 7.4769Z" fill="#282643"/>
<path d="M150 7.4769V23.1001C150 30.1318 146.26 31.8182 141.585 31.8182C136.877 31.8182 133.846 30.1636 132.847 26.1542H136.007C136.652 28.254 138.812 29.1137 141.488 29.1137C145.615 29.1137 146.873 27.1404 146.873 22.7824V21.7633C145.422 23.8004 143.133 24.6909 140.516 24.6909C135.066 24.6909 132.132 20.9047 132.132 15.6551C132.132 10.9135 134.518 6.96788 140.322 6.96788C142.934 6.96788 145.352 7.79053 146.867 10.023V7.4769H150ZM146.874 14.6998C146.874 11.6148 144.424 9.67235 140.973 9.67235C137.072 9.67235 135.04 12.091 135.04 15.7497C135.04 19.4722 137.104 21.9864 141.038 21.9864C144.552 21.9864 146.874 19.9812 146.874 16.5456V14.6998Z" fill="#282643"/>
<path d="M12.5865 24.3619H11.1276C9.43742 24.36 7.81705 23.6967 6.62184 22.5175C5.42664 21.3383 4.75419 19.7394 4.75198 18.0716V13.7147C4.75198 12.6154 4.60817 11.2087 3.9183 10.7511C3.39725 10.4066 2.4479 10.4045 1.44123 10.4066H0V7.42444H1.48916C2.8293 7.42444 4.34243 7.4337 5.61171 8.27898C7.07065 9.24868 7.77407 11.0266 7.77407 13.7147V18.0716C7.77518 18.9488 8.12888 19.7898 8.75757 20.41C9.38626 21.0302 10.2386 21.3789 11.1276 21.3797H12.5865V24.3619Z" fill="#282643"/>
<path d="M11.8247 7.42444H0V10.4066H11.8247V7.42444Z" fill="#FF4646"/>
<path d="M1.40058 10.4066H0V7.42444H1.40058C3.3118 7.42444 4.75302 6.08763 4.75302 4.32201V1.37897H7.77511V4.31893C7.77511 7.73397 4.97499 10.4066 1.40058 10.4066Z" fill="#37AA78"/>
</g>
<defs>
<clipPath id="clip0_2012_6979">
<rect width="150" height="31.8182" fill="white"/>
</clipPath>
</defs>
</svg>
