<?xml version="1.0" encoding="UTF-8" standalone="no"?>
<svg
   xmlns:dc="http://purl.org/dc/elements/1.1/"
   xmlns:cc="http://creativecommons.org/ns#"
   xmlns:rdf="http://www.w3.org/1999/02/22-rdf-syntax-ns#"
   xmlns:svg="http://www.w3.org/2000/svg"
   xmlns="http://www.w3.org/2000/svg"
   xmlns:sodipodi="http://sodipodi.sourceforge.net/DTD/sodipodi-0.dtd"
   xmlns:inkscape="http://www.inkscape.org/namespaces/inkscape"
   inkscape:version="1.0 (4035a4fb49, 2020-05-01)"
   height="106.4"
   width="364.10001"
   sodipodi:docname="Eventim_4c_pos.svg"
   xml:space="preserve"
   viewBox="0 0 364.10002 106.4"
   y="0px"
   x="0px"
   id="Raster"
   version="1.1"><metadata
   id="metadata28"><rdf:RDF><cc:Work
       rdf:about=""><dc:format>image/svg+xml</dc:format><dc:type
         rdf:resource="http://purl.org/dc/dcmitype/StillImage" /><dc:title></dc:title></cc:Work></rdf:RDF></metadata><defs
   id="defs26" /><sodipodi:namedview
   inkscape:current-layer="Raster"
   inkscape:window-maximized="1"
   inkscape:window-y="-8"
   inkscape:window-x="-8"
   inkscape:cy="73.4"
   inkscape:cx="182.14999"
   inkscape:zoom="2.4473229"
   fit-margin-bottom="0"
   fit-margin-right="0"
   fit-margin-left="0"
   fit-margin-top="0"
   showgrid="false"
   id="namedview24"
   inkscape:window-height="1017"
   inkscape:window-width="1920"
   inkscape:pageshadow="2"
   inkscape:pageopacity="0"
   guidetolerance="10"
   gridtolerance="10"
   objecttolerance="10"
   borderopacity="1"
   bordercolor="#666666"
   pagecolor="#ffffff" />
<g
   transform="translate(-26.5,-26.6)"
   id="g21">
	<g
   id="g16">
		<path
   id="path2"
   d="m 29.5,90.6 c 2,-4.3 4.7,-7.7 8.4,-10.1 3.6,-2.5 7.8,-3.7 12.6,-3.7 7.2,0 12.9,2.6 16.9,7.9 4.1,5.3 6.1,12.2 6.1,20.7 v 3.8 H 39.9 c 0.3,3.8 1.6,7 3.8,9.4 2.2,2.4 5.3,3.7 9.2,3.7 2.1,0 4.2,-0.5 6.3,-1.4 2.1,-0.9 3.9,-2.2 5.4,-3.8 l 6.1,8 c -2.4,2.6 -5.2,4.6 -8.6,5.9 -3.4,1.4 -6.9,2 -10.6,2 -4.9,0 -9.3,-1.2 -13.1,-3.5 -3.8,-2.3 -6.7,-5.6 -8.8,-9.9 -2.1,-4.3 -3.1,-9.2 -3.1,-14.7 0,-5.3 1,-10 3,-14.3 z m 13.1,0.6 c -1.7,2.5 -2.6,5.4 -2.7,8.8 h 20.7 c -0.1,-3.3 -1,-6.2 -2.7,-8.8 -1.6,-2.5 -4.2,-3.8 -7.8,-3.8 -3.3,0.1 -5.8,1.3 -7.5,3.8 z"
   style="fill:#202867" />
		<path
   id="path4"
   d="m 71.3,78.1 h 14.2 l 10.7,37.6 10.9,-37.6 h 14.2 l -17.8,53.5 H 89.1 Z"
   style="fill:#202867" />
		<path
   id="path6"
   d="m 122.2,90.6 c 2,-4.3 4.7,-7.7 8.4,-10.1 3.6,-2.5 7.8,-3.7 12.6,-3.7 7.2,0 12.9,2.6 16.9,7.9 4.1,5.3 6.1,12.2 6.1,20.7 v 3.8 h -33.6 c 0.3,3.8 1.6,7 3.8,9.4 2.2,2.4 5.3,3.7 9.2,3.7 2.1,0 4.2,-0.5 6.3,-1.4 2.1,-0.9 3.9,-2.2 5.4,-3.8 l 6.1,8 c -2.4,2.6 -5.2,4.6 -8.6,5.9 -3.4,1.4 -6.9,2 -10.6,2 -4.9,0 -9.3,-1.2 -13.1,-3.5 -3.8,-2.3 -6.7,-5.6 -8.8,-9.9 -2.1,-4.3 -3.1,-9.2 -3.1,-14.7 0,-5.3 1,-10 3,-14.3 z m 13.2,0.6 c -1.7,2.5 -2.6,5.4 -2.7,8.8 h 20.7 c -0.1,-3.3 -1,-6.2 -2.7,-8.8 -1.6,-2.5 -4.2,-3.8 -7.8,-3.8 -3.4,0.1 -5.9,1.3 -7.5,3.8 z"
   style="fill:#202867" />
		<path
   id="path8"
   d="m 200.2,96.3 c 0,-5.2 -2.3,-7.9 -7,-7.9 -2.1,0 -3.9,0.6 -5.6,1.9 -1.7,1.3 -3,2.9 -4.2,4.7 v 36.4 H 170.1 V 78.1 h 13.3 v 7 c 1.6,-2.3 3.7,-4.2 6.6,-5.9 2.8,-1.6 5.9,-2.4 9.1,-2.4 4.8,0 8.4,1.3 10.7,3.9 2.4,2.6 3.5,6.2 3.5,10.7 v 40.2 H 200 V 96.3 Z"
   style="fill:#202867" />
		<path
   id="path10"
   d="m 226.4,129.4 c -2.2,-2.4 -3.3,-5.9 -3.3,-10.6 v -29 h -7 V 78.1 h 7 V 63.4 h 13.3 V 78 h 8.9 v 11.6 h -8.9 v 25.9 c 0,1.8 0.3,3.1 1,4.1 0.7,1 1.6,1.4 2.9,1.4 0.8,0 1.6,-0.1 2.3,-0.4 0.7,-0.3 1.3,-0.7 1.7,-1.1 l 2.8,10.2 c -2.3,2.1 -5.7,3.1 -10.3,3.1 -4.8,0.1 -8.2,-1.1 -10.4,-3.4 z"
   style="fill:#202867" />
		<path
   id="path12"
   d="m 250.8,67.9 c -1.6,-1.6 -2.4,-3.4 -2.4,-5.6 0,-2.2 0.8,-4.1 2.4,-5.7 1.6,-1.6 3.5,-2.4 5.6,-2.4 2.2,0 4.1,0.8 5.6,2.4 1.6,1.6 2.3,3.5 2.3,5.7 0,2.2 -0.8,4.1 -2.3,5.6 -1.6,1.6 -3.4,2.3 -5.6,2.3 -2.2,0 -4,-0.8 -5.6,-2.3 z m -1.1,10.2 H 263 v 53.5 h -13.3 z"
   style="fill:#202867" />
		<path
   id="path14"
   d="m 326.8,95.6 c 0,-4.7 -2,-7.1 -6.1,-7.1 -1.9,0 -3.7,0.7 -5.3,2 -1.6,1.3 -2.9,2.9 -3.9,4.7 v 36.4 h -13.3 v -36 c 0,-4.7 -2,-7.1 -6.1,-7.1 -1.8,0 -3.6,0.7 -5.3,2 -1.7,1.3 -3,2.9 -3.9,4.7 v 36.4 H 269.6 V 78.1 H 283 v 7 c 1.2,-2.1 3.2,-4 6,-5.7 2.8,-1.7 5.9,-2.6 9,-2.6 3.4,0 6.2,0.8 8.5,2.4 2.3,1.6 3.7,3.9 4.5,6.9 1.3,-2.5 3.5,-4.7 6.4,-6.5 3,-1.8 6,-2.8 9.2,-2.8 4.3,0 7.6,1.2 10,3.5 2.4,2.3 3.5,5.9 3.5,10.7 v 40.7 h -13.3 z"
   style="fill:#202867" />
	</g>
	<g
   id="_x33_5_x2C_11_5_">
		<path
   id="path18"
   d="m 353.7,63.5 v 0 c 6.2,6.2 6.4,15.9 6.4,22.6 h 1.5 c 0,-6.7 0.2,-16.4 6.4,-22.6 v 0 c 6.2,-6.2 15.9,-6.4 22.6,-6.4 v -1.5 c -6.7,0 -16.4,-0.2 -22.6,-6.4 v 0 C 361.8,43 361.6,33.3 361.6,26.6 H 360 c 0,6.7 -0.2,16.4 -6.4,22.6 v 0 c -6.2,6.2 -15.9,6.4 -22.6,6.4 v 1.5 c 6.8,0 16.5,0.2 22.7,6.4 z"
   style="fill:#feca27" />
	</g>
</g>
</svg>
