<svg enable-background="new 0 0 860 267" version="1.1" viewBox="0 0 860 267" xml:space="preserve" xmlns="http://www.w3.org/2000/svg">
<style type="text/css">
	.st0{fill:#FFFFFF;}
	.st1{fill:url(#SVGID_1_);}
	.st2{fill:url(#SVGID_00000137834318155154474910000014933444253602913927_);}
</style>

	<path class="st0" d="m632.45 133.58c0-46.31 33.35-88.54 90.94-88.54 57.83 0 91.18 42.23 91.18 88.54s-33.35 88.54-91.18 88.54c-57.58 0.01-90.94-42.23-90.94-88.54zm131.5 0c0-22.32-14.88-42.95-40.55-42.95-25.44 0-40.55 20.64-40.55 42.95 0 22.32 15.12 42.95 40.55 42.95 25.67 0 40.55-20.63 40.55-42.95z"/>
	<path class="st0" d="m597.04 166.46c19.2-10.8 30.71-31.43 30.71-54.23 0-33.83-24.72-62.63-63.11-62.63h-80.62v167.97h49.91v-42.95h9.36l28.55 42.95h58.79l-33.59-51.11zm-42.47-30.48h-20.64v-47.51h20.88c13.44 0 22.08 10.8 22.08 23.76 0 12.95-8.88 23.75-22.32 23.75z"/>
	<polygon class="st0" points="256.18 49.42 226.24 149.53 197.02 49.42 157.27 49.42 127.81 149.53 98.11 49.42 45.42 49.42 105.77 217.07 149.12 217.07 177.14 125.82 204.93 217.07 248.52 217.07 308.87 49.42"/>
	<path class="st0" d="m384.39 176.12h-0.12c-18.67 0-31.76-11.14-37.38-25.89h126.84c1.02-5.55 1.55-11.23 1.55-16.98 0-46.19-33.25-88.31-90.89-88.37v45.51c18.78 0.05 31.74 11.17 37.3 25.89h-126.66c-1.01 5.55-1.53 11.23-1.53 16.98 0 46.22 33.29 88.38 90.77 88.38h0.12v-45.52z"/>
	
		<linearGradient id="SVGID_1_" x1="446.38" x2="368.61" y1="122.8" y2="219.14" gradientUnits="userSpaceOnUse">
			<stop stop-color="#fff" stop-opacity="0" offset=".0243"/>
			<stop stop-color="#fff" offset=".676"/>
		</linearGradient>
		<path class="st1" d="m384.27 221.62c1.95 0 3.87-0.06 5.77-0.15 11.68-0.59 22.28-2.94 31.73-6.73s17.75-9 24.81-15.3 12.89-13.68 17.41-21.81c4.11-7.39 7.11-15.39 8.99-23.74h-52.85c-1.08 2.23-2.34 4.36-3.78 6.35-1.97 2.72-4.28 5.19-6.9 7.32s-5.56 3.93-8.8 5.32-6.77 2.37-10.59 2.86c-1.86 0.24-3.78 0.38-5.77 0.38-11.89 0-21.52-4.53-28.39-11.62l-34.36 34.36c15.27 13.96 36.47 22.76 62.73 22.76z"/>
		
			<linearGradient id="SVGID_00000132063751505632041560000016576476051522301593_" x1="310.31" x2="390.22" y1="144.39" y2="64.475" gradientUnits="userSpaceOnUse">
			<stop stop-color="#fff" stop-opacity="0" offset=".0243"/>
			<stop stop-color="#fff" offset=".676"/>
		</linearGradient>
		<path d="m384.27 44.87c-48.75 0-80.1 30.32-88.5 67.74h52.7c6.3-12.89 18.71-22.23 35.8-22.23 13.62 0 24.19 5.82 31.1 14.62l34.67-34.67c-15.48-15.52-37.75-25.46-65.77-25.46z" fill="url(#SVGID_00000132063751505632041560000016576476051522301593_)"/>
	

</svg>
