<svg width="119" height="32" viewBox="0 0 119 32" fill="none" xmlns="http://www.w3.org/2000/svg">
<path d="M0 0V24.6615L30.4219 13.1577V0H0Z" fill="#173A87"/>
<path d="M4.823 18.7227V31.8011H35.2449V7.13959L4.823 18.7227Z" fill="#8C9396"/>
<path d="M45.0466 0.076416H45.9585C46.2842 0.076416 46.6071 0.101925 46.9271 0.133078C47.227 0.159727 47.525 0.205124 47.8192 0.269011C48.0702 0.323307 48.3105 0.419017 48.53 0.552216C48.9701 0.82241 49.3444 1.18712 49.6261 1.61991C49.9393 2.12168 50.096 2.70529 50.0764 3.29646C50.0922 3.93859 49.9157 4.57081 49.5694 5.11182C49.2189 5.63176 48.7136 6.02811 48.1251 6.24464V6.28146C48.8596 6.40722 49.5215 6.80073 49.9829 7.38597C50.4234 7.98127 50.6509 8.70747 50.6286 9.44771C50.6307 9.93157 50.5433 10.4116 50.3709 10.8637C50.2003 11.3135 49.9401 11.7239 49.6062 12.0702C49.2492 12.4333 48.8237 12.722 48.3545 12.9198C47.8087 13.1444 47.2226 13.2543 46.6326 13.2426H40.2661V0.076416H45.0466ZM45.5281 5.74053C46.5212 5.74053 47.2358 5.56494 47.6719 5.21377C47.8963 5.02054 48.0723 4.77751 48.1859 4.5041C48.2995 4.23068 48.3475 3.93447 48.3261 3.63916C48.3446 3.25842 48.2687 2.879 48.1052 2.53466C47.966 2.27233 47.7547 2.05521 47.4963 1.90878C47.2207 1.75624 46.9174 1.65997 46.6043 1.62558C46.2472 1.58142 45.8878 1.55964 45.5281 1.56041H42.0277V5.74336L45.5281 5.74053ZM46.4117 11.7615C46.7401 11.7814 47.0692 11.7364 47.3802 11.629C47.6912 11.5216 47.978 11.3539 48.2242 11.1356C48.4488 10.9094 48.6232 10.6384 48.7359 10.3402C48.8487 10.0421 48.8972 9.72344 48.8784 9.40522C48.8925 9.03477 48.8105 8.66696 48.6405 8.33753C48.4881 8.06289 48.269 7.83107 48.0033 7.6635C47.7232 7.49258 47.4141 7.37452 47.0914 7.31517C46.7397 7.24637 46.382 7.21223 46.0237 7.21322H42.0277V11.7615H46.4117Z" fill="#173A87"/>
<path d="M60.7192 13.1859C60.3706 13.3682 59.9791 13.4524 59.5864 13.4295C59.2323 13.4479 58.8852 13.3258 58.6207 13.0896C58.4878 12.938 58.3873 12.7608 58.3255 12.5689C58.2636 12.377 58.2417 12.1745 58.261 11.9738C57.8625 12.4661 57.3462 12.8499 56.76 13.0896C56.1698 13.3196 55.5412 13.4349 54.9078 13.4295C54.4954 13.4321 54.0844 13.3826 53.6844 13.2822C53.323 13.1951 52.9817 13.0393 52.679 12.8234C52.3917 12.6084 52.1613 12.3265 52.0078 12.0021C51.8314 11.619 51.7461 11.2003 51.7586 10.7787C51.7429 10.3194 51.8402 9.86338 52.0418 9.45046C52.214 9.11468 52.4623 8.82375 52.7668 8.60084C53.0814 8.38129 53.4309 8.21656 53.8005 8.1137C54.1857 8.00325 54.5822 7.91262 54.9871 7.83049C55.3921 7.74836 55.8368 7.68041 56.2134 7.63793C56.5584 7.60248 56.9001 7.54094 57.2358 7.45384C57.4929 7.39365 57.7324 7.27439 57.9353 7.10551C58.024 7.01816 58.0929 6.91276 58.1374 6.79648C58.1819 6.68019 58.2008 6.55573 58.193 6.43148C58.2062 6.14335 58.1396 5.85716 58.0004 5.6045C57.8797 5.40283 57.7077 5.23673 57.502 5.12307C57.2894 5.00962 57.0583 4.93482 56.8195 4.90216C56.5728 4.86614 56.3239 4.84817 56.0746 4.84837C55.499 4.8274 54.9279 4.95723 54.4179 5.22502C53.9733 5.47707 53.7354 5.95286 53.6985 6.64105H52.1324C52.1395 6.12196 52.2655 5.61139 52.5006 5.14855C52.7121 4.75409 53.0151 4.41612 53.3842 4.163C53.7684 3.9066 54.1966 3.72322 54.6473 3.62207C55.1452 3.50841 55.6545 3.45235 56.1653 3.45498C56.5937 3.4548 57.0215 3.48603 57.4454 3.54843C57.8495 3.60188 58.2403 3.72961 58.598 3.92511C58.94 4.11371 59.2263 4.38918 59.4278 4.72374C59.6517 5.13458 59.7594 5.59867 59.7393 6.06613V10.9543C59.7311 11.2258 59.7529 11.4975 59.8045 11.7642C59.846 11.9341 59.9904 12.0191 60.2378 12.0191C60.4011 12.0148 60.5627 11.9842 60.7164 11.9285L60.7192 13.1859ZM58.1704 8.29212C57.9396 8.45483 57.6755 8.56415 57.3972 8.61214C57.0772 8.68011 56.743 8.73678 56.3947 8.77926C56.0463 8.82174 55.6895 8.86986 55.3355 8.9265C55.0062 8.97338 54.6844 9.06289 54.3782 9.19273C54.1067 9.30636 53.8687 9.48771 53.6872 9.71949C53.4897 9.98779 53.3898 10.3155 53.404 10.6484C53.3967 10.8631 53.445 11.0761 53.5442 11.2666C53.6434 11.4572 53.7903 11.6188 53.9704 11.7359C54.1472 11.8512 54.3442 11.9319 54.551 11.9738C54.7806 12.0248 55.0153 12.0495 55.2505 12.0474C55.7013 12.0576 56.1503 11.9866 56.5759 11.8379C56.9078 11.7173 57.2142 11.5358 57.4793 11.3026C57.6976 11.1075 57.8731 10.8694 57.9948 10.6031C58.0981 10.3801 58.1541 10.138 58.159 9.89224L58.1704 8.29212Z" fill="#173A87"/>
<path d="M63.4125 3.7014V5.21087H63.4493C64.0978 4.05822 65.1315 3.48049 66.5419 3.48049C67.0757 3.46395 67.6077 3.55149 68.108 3.73822C68.5002 3.89064 68.8485 4.13778 69.1219 4.45757C69.3858 4.77573 69.572 5.15098 69.6657 5.55357C69.7736 6.01772 69.8259 6.49308 69.8214 6.9696V13.2341H68.2553V6.78551C68.2686 6.52956 68.2298 6.27357 68.1412 6.03307C68.0526 5.79258 67.9161 5.57258 67.7399 5.38646C67.5509 5.20936 67.328 5.0724 67.0846 4.98381C66.8412 4.89522 66.5824 4.85686 66.3238 4.87104C65.8989 4.86129 65.4762 4.9364 65.0806 5.09195C64.7447 5.23074 64.4453 5.44488 64.2055 5.71782C63.9683 5.9953 63.7901 6.31807 63.6815 6.66655C63.5618 7.05059 63.5026 7.45094 63.5059 7.8532V13.2341H61.9398V3.7014H63.4125Z" fill="#173A87"/>
<path d="M73.4436 0.076416V7.8674L77.7908 3.70146H79.8922L76.1142 7.16506L80.1669 13.2257H78.1845L74.9248 8.25256L73.4493 9.61479V13.2257H71.886V0.076416H73.4436Z" fill="#173A87"/>
<path d="M44.231 31.7926L39.6091 18.6434H41.4868L45.2506 30.0396H45.2874L49.0824 18.6406H50.9062L46.2276 31.7898L44.231 31.7926Z" fill="#173A87"/>
<path d="M59.3712 31.753C59.0224 31.9347 58.631 32.0188 58.2383 31.9965C57.8834 32.0151 57.5354 31.893 57.2698 31.6567C57.1378 31.5045 57.0378 31.3272 56.976 31.1355C56.9142 30.9437 56.8918 30.7415 56.9101 30.5408C56.5115 31.033 55.9953 31.4167 55.4091 31.6567C54.427 32.0305 53.3546 32.0977 52.3335 31.8492C51.9723 31.7626 51.6316 31.6058 51.331 31.3876C51.043 31.1737 50.8116 30.8928 50.6569 30.5692C50.4881 30.1647 50.4035 29.7301 50.4084 29.2918C50.4133 28.8536 50.5075 28.4209 50.6853 28.0203C50.8585 27.6843 51.1077 27.3934 51.4131 27.1707C51.7258 26.9497 52.0747 26.7849 52.444 26.6836C52.832 26.5731 53.2256 26.4797 53.6334 26.4004C54.0412 26.3211 54.483 26.2503 54.8569 26.2078C55.2019 26.1726 55.5437 26.111 55.8792 26.0237C56.1369 25.9635 56.3766 25.8431 56.5788 25.6725C56.6682 25.5863 56.7376 25.4815 56.7821 25.3655C56.8266 25.2496 56.8452 25.1252 56.8365 25.0013C56.8492 24.7123 56.7826 24.4254 56.6439 24.1716C56.5224 23.9712 56.3505 23.8062 56.1455 23.6929C55.934 23.5791 55.7038 23.5043 55.4658 23.472C55.2182 23.436 54.9683 23.418 54.7181 23.4182C54.1425 23.3972 53.5713 23.5271 53.0614 23.7949C52.6196 24.0479 52.3798 24.5199 52.342 25.2109H50.7759C50.7839 24.6916 50.9108 24.181 51.1469 23.7184C51.3584 23.324 51.6614 22.986 52.0305 22.7328C52.4128 22.4742 52.8403 22.2898 53.2907 22.1891C53.7897 22.0763 54.3 22.0212 54.8116 22.0248C55.2398 22.0252 55.6676 22.0555 56.0917 22.1155C56.4945 22.1707 56.884 22.2983 57.2415 22.4921C57.5842 22.6811 57.8705 22.9577 58.0713 23.2936C58.3034 23.7098 58.4143 24.1827 58.3913 24.6587V29.5496C58.3823 29.8201 58.4032 30.0908 58.4536 30.3567C58.4961 30.5295 58.6405 30.6145 58.8869 30.6145C59.0501 30.609 59.2115 30.5784 59.3655 30.5238L59.3712 31.753ZM56.8223 26.8563C56.5905 27.0178 56.3269 27.1279 56.0492 27.1792C55.7292 27.2472 55.395 27.3038 55.0438 27.3463C54.6926 27.3888 54.3414 27.4369 53.9846 27.4935C53.6554 27.5408 53.3337 27.6303 53.0274 27.7597C52.7564 27.873 52.5186 28.0533 52.3363 28.2837C52.1452 28.5555 52.0514 28.8837 52.0701 29.2154C52.0624 29.4435 52.1162 29.6695 52.2259 29.8696C52.3264 30.0429 52.4648 30.191 52.6309 30.303C52.808 30.4176 53.0048 30.4983 53.2115 30.5408C53.4413 30.5905 53.6758 30.6151 53.911 30.6145C54.3621 30.6255 54.8113 30.5535 55.2364 30.4021C55.5694 30.2852 55.8763 30.1044 56.1398 29.8696C56.3574 29.674 56.5328 29.436 56.6552 29.1701C56.7593 28.9472 56.8162 28.7052 56.8223 28.4593V26.8563Z" fill="#173A87"/>
<path d="M62.073 22.2712V23.7808H62.1098C62.7612 22.6272 63.793 22.0504 65.2053 22.0504C65.7382 22.0338 66.2692 22.1214 66.7686 22.3081C67.1607 22.4605 67.509 22.7076 67.7824 23.0274C68.0458 23.3449 68.2319 23.7191 68.3262 24.1206C68.4352 24.5846 68.4875 25.06 68.482 25.5366V31.7983H66.9187V25.3525C66.9321 25.0963 66.8931 24.8401 66.804 24.5995C66.7149 24.3589 66.5775 24.1391 66.4004 23.9535C66.2119 23.7757 65.9891 23.6383 65.7456 23.5496C65.5021 23.461 65.2431 23.423 64.9844 23.4381C64.5594 23.4281 64.1367 23.5032 63.7411 23.659C63.4039 23.7953 63.1039 24.0098 62.866 24.2849C62.628 24.5622 62.4488 24.885 62.3392 25.2336C62.2202 25.6177 62.1619 26.0181 62.1665 26.4202V31.8011H60.6003V22.2798L62.073 22.2712Z" fill="#173A87"/>
<path d="M76.5986 18.6434H77.5105C77.8333 18.6434 78.1562 18.6689 78.4762 18.6972C78.776 18.7261 79.0739 18.7725 79.3683 18.836C79.6197 18.889 79.8601 18.9848 80.0791 19.1192C80.5192 19.3894 80.8935 19.7541 81.1752 20.1869C81.4887 20.6885 81.6455 21.2722 81.6255 21.8634C81.6418 22.5047 81.4652 23.1362 81.1185 23.676C80.7689 24.1967 80.2632 24.5933 79.6742 24.8088V24.8456C80.4096 24.973 81.0721 25.3673 81.5348 25.9529C81.9734 26.5491 82.1997 27.2749 82.1777 28.0147C82.1784 28.4929 82.091 28.9671 81.92 29.4137C81.7507 29.8641 81.4904 30.2748 81.1553 30.6202C80.7994 30.9846 80.3736 31.2735 79.9036 31.4698C79.3572 31.692 78.7714 31.8009 78.1817 31.7898H71.8265V18.6406L76.5986 18.6434ZM77.0772 24.3075C78.0703 24.3075 78.7849 24.1329 79.221 23.7836C79.4452 23.5902 79.6211 23.3472 79.7347 23.0738C79.8482 22.8004 79.8964 22.5042 79.8752 22.2089C79.8937 21.8282 79.8178 21.4488 79.6543 21.1044C79.5161 20.8423 79.3058 20.6252 79.0483 20.4786C78.7714 20.3264 78.4673 20.2302 78.1534 20.1954C77.7963 20.1512 77.4369 20.1295 77.0772 20.1302H73.5767V24.3103L77.0772 24.3075ZM77.9608 30.3228C78.6239 30.362 79.2756 30.137 79.7733 29.6969C79.9979 29.4707 80.1723 29.1997 80.285 28.9015C80.3978 28.6034 80.4463 28.2848 80.4275 27.9665C80.4412 27.5952 80.3593 27.2266 80.1896 26.896C80.0371 26.6222 79.8179 26.3913 79.5524 26.2248C79.2738 26.0523 78.9655 25.9332 78.6433 25.8736C78.2903 25.8073 77.9319 25.7741 77.5728 25.7745H73.5767V30.3228H77.9608Z" fill="#173A87"/>
<path d="M85.3383 22.2712V24.2792H85.3751C85.682 23.5945 86.1647 23.0033 86.7741 22.5658C87.402 22.1775 88.1364 21.9971 88.8727 22.0503V23.7071C88.3272 23.6948 87.7839 23.7821 87.2697 23.9648C86.8541 24.1197 86.4861 24.3803 86.2021 24.7209C85.9204 25.0755 85.7193 25.4872 85.613 25.9274C85.4838 26.4604 85.422 27.0075 85.4289 27.5558V31.8039H83.8628V22.2825L85.3383 22.2712Z" fill="#173A87"/>
<path d="M96.4287 31.1865C95.6482 31.7486 94.7022 32.0337 93.741 31.9965C93.0619 32.0113 92.3871 31.8859 91.7586 31.6283C91.2146 31.3963 90.7304 31.0438 90.3426 30.5974C89.953 30.133 89.6638 29.5931 89.493 29.0115C89.2964 28.3596 89.1888 27.6842 89.1729 27.0036C89.1658 26.3284 89.2779 25.6573 89.5043 25.0211C89.7102 24.4441 90.0256 23.9124 90.4332 23.455C90.8285 23.0167 91.3107 22.6656 91.8492 22.4241C92.4144 22.1742 93.0268 22.0486 93.6447 22.056C94.3834 22.0283 95.1147 22.2099 95.7546 22.5799C96.2988 22.9174 96.7589 23.3746 97.0999 23.9166C97.437 24.459 97.6739 25.0576 97.7994 25.6838C97.9244 26.2833 97.9767 26.8957 97.9551 27.5077H90.8297C90.8159 27.9085 90.8656 28.309 90.9769 28.6943C91.0823 29.0609 91.2648 29.4008 91.5122 29.6912C91.7691 29.9887 92.0894 30.2248 92.4496 30.3822C92.8749 30.5616 93.3333 30.6495 93.7948 30.6399C94.3739 30.6634 94.9453 30.5017 95.4261 30.1783C95.8761 29.8362 96.1797 29.3363 96.2757 28.7793H97.822C97.6779 29.7287 97.1802 30.5886 96.4287 31.1865ZM96.052 25.0692C95.9193 24.7524 95.727 24.4639 95.4856 24.2196C95.0902 23.8448 94.595 23.5921 94.0596 23.4916C93.5241 23.3911 92.971 23.4472 92.4666 23.6532C92.1481 23.7828 91.8591 23.9754 91.617 24.2196C91.3774 24.4654 91.1853 24.7535 91.0506 25.0692C90.916 25.4007 90.8357 25.7516 90.8127 26.1086H96.2842C96.2665 25.752 96.1899 25.4008 96.0577 25.0692H96.052Z" fill="#173A87"/>
<path d="M106.369 31.7925V30.504H106.332C106.082 31.0205 105.648 31.4246 105.115 31.6368C104.537 31.8766 103.916 31.9961 103.291 31.988C102.627 32.0031 101.969 31.8644 101.368 31.583C100.838 31.3264 100.371 30.9549 100.003 30.4955C99.6329 30.0238 99.3553 29.4868 99.1842 28.9124C98.9947 28.291 98.8993 27.6447 98.901 26.9951C98.8967 26.3474 98.9864 25.7025 99.1672 25.0806C99.3306 24.5074 99.6059 23.9722 99.9772 23.506C100.346 23.0528 100.811 22.688 101.339 22.4383C101.937 22.1638 102.588 22.0283 103.245 22.0418C103.511 22.0441 103.777 22.0687 104.038 22.1154C104.33 22.1654 104.615 22.2491 104.888 22.3647C105.174 22.4825 105.443 22.6367 105.689 22.8234C105.945 23.0177 106.161 23.259 106.327 23.5343H106.364V18.6348H107.927V31.7841L106.369 31.7925ZM100.742 28.4139C100.85 28.8204 101.03 29.2041 101.274 29.5467C101.516 29.8786 101.831 30.1501 102.195 30.3397C102.605 30.5387 103.056 30.6358 103.512 30.6229C103.98 30.6376 104.444 30.5291 104.857 30.3086C105.216 30.1073 105.525 29.8275 105.76 29.4901C105.998 29.1399 106.17 28.7493 106.267 28.3375C106.481 27.4629 106.481 26.5499 106.267 25.6753C106.166 25.262 105.988 24.8718 105.74 24.5255C105.497 24.1904 105.179 23.9161 104.812 23.724C104.383 23.5103 103.908 23.4062 103.43 23.421C102.962 23.4068 102.498 23.5142 102.084 23.7325C101.726 23.9328 101.423 24.2178 101.201 24.5623C100.973 24.9237 100.811 25.3225 100.722 25.7404C100.623 26.1877 100.574 26.6446 100.575 27.1027C100.57 27.5454 100.626 27.9867 100.742 28.4139Z" fill="#173A87"/>
<path d="M118.451 31.7529C118.102 31.9341 117.71 32.0182 117.318 31.9965C116.964 32.0149 116.617 31.8928 116.352 31.6566C116.22 31.5048 116.119 31.3276 116.057 31.1357C115.996 30.9439 115.974 30.7415 115.992 30.5408C115.593 31.0323 115.077 31.4159 114.492 31.6566C113.901 31.8866 113.273 32.0019 112.639 31.9965C112.227 31.9991 111.816 31.9497 111.416 31.8492C111.054 31.7624 110.712 31.6055 110.411 31.3876C110.123 31.1735 109.893 30.8925 109.739 30.5691C109.563 30.185 109.478 29.7653 109.49 29.3429C109.475 28.8845 109.572 28.4295 109.773 28.0174C109.946 27.6809 110.195 27.3898 110.501 27.1678C110.814 26.9469 111.163 26.782 111.532 26.6807C111.917 26.5703 112.314 26.4768 112.719 26.3975C113.124 26.3182 113.568 26.2474 113.945 26.2049C114.29 26.1695 114.632 26.108 114.967 26.0209C115.225 25.9606 115.465 25.8403 115.667 25.6697C115.756 25.5834 115.826 25.4786 115.87 25.3627C115.915 25.2467 115.933 25.1224 115.925 24.9985C115.937 24.7095 115.871 24.4225 115.732 24.1687C115.61 23.9684 115.439 23.8034 115.233 23.69C115.021 23.5762 114.79 23.5014 114.551 23.4692C114.304 23.4332 114.055 23.4151 113.806 23.4153C113.23 23.3944 112.659 23.5242 112.149 23.792C111.705 24.044 111.467 24.5198 111.43 25.208H109.864C109.871 24.6889 109.997 24.1784 110.232 23.7156C110.444 23.3211 110.747 22.9831 111.116 22.73C111.499 22.4715 111.928 22.2871 112.379 22.1862C112.878 22.0734 113.388 22.0183 113.9 22.022C114.327 22.0223 114.754 22.0526 115.177 22.1126C115.581 22.1674 115.971 22.295 116.33 22.4893C116.672 22.679 116.958 22.9554 117.159 23.2908C117.383 23.7007 117.491 24.1638 117.471 24.6303V29.5213C117.462 29.7919 117.484 30.0626 117.536 30.3284C117.578 30.5012 117.723 30.5861 117.969 30.5861C118.132 30.5803 118.294 30.5498 118.448 30.4955L118.451 31.7529ZM115.902 26.8563C115.671 27.0189 115.407 27.1291 115.129 27.1792C114.809 27.2471 114.474 27.3038 114.126 27.3462C113.778 27.3887 113.424 27.4369 113.067 27.4935C112.738 27.5404 112.416 27.6299 112.11 27.7597C111.838 27.8723 111.6 28.0527 111.419 28.2837C111.222 28.5532 111.122 28.8817 111.136 29.2154C111.128 29.4301 111.176 29.6431 111.276 29.8337C111.375 30.0242 111.522 30.1859 111.702 30.3029C111.879 30.4182 112.076 30.4989 112.282 30.5408C112.512 30.5904 112.747 30.6151 112.982 30.6144C113.433 30.6255 113.882 30.5535 114.307 30.402C114.64 30.2838 114.946 30.1031 115.211 29.8696C115.428 29.674 115.604 29.4359 115.726 29.1701C115.83 28.9471 115.886 28.705 115.891 28.4593L115.902 26.8563Z" fill="#173A87"/>
</svg>
