<svg xmlns="http://www.w3.org/2000/svg" xmlns:xlink="http://www.w3.org/1999/xlink" viewBox="0 0 241 114" version="1.1" width="241"  height="114" >
        <g fill="#00A160">
                      <path d="M58.9750499,95.7711048 L62.5326689,95.7711048 C64.6481134,95.7711048 72.3404399,95.6760163 72.3404399,88.7515016 C72.3404399,85.7480186 70.3211769,82.0685333 64.4557506,82.0685333 L58.9750499,82.0685333 L58.9750499,95.7711048 Z M70.8026304,113.108896 L59.0712313,96.5006626 L58.9750499,96.5006626 L58.9750499,113.108896 L53.782183,113.108896 L53.782183,77.2742181 L64.791839,77.2742181 C69.7921791,77.2742181 72.3885306,78.48359 74.2629751,80.2744222 C76.5232381,82.4548984 77.5325964,85.7480186 77.5325964,88.7515016 C77.5325964,98.2444971 69.647907,99.7424132 67.3400998,99.7424132 L77.2926893,113.108896 L70.8026304,113.108896 Z"/>
                      <path d="M106.233456,86.2796395 C104.743737,84.6336259 101.762113,81.3891429 96.5218662,81.3891429 C89.1186304,81.3891429 83.349932,87.7819274 83.349932,95.288449 C83.349932,103.182429 89.8399909,108.993753 96.5710499,108.993753 C97.5804082,108.993753 105.417553,108.898118 108.8309,100.082764 L92.2439796,100.082764 L92.2439796,95.288449 L114.743871,95.288449 C114.551508,107.299102 105.032281,113.786975 96.3786871,113.786975 C85.9943741,113.786975 78.157229,105.312628 78.157229,95.288449 C78.157229,84.9724467 86.0905556,76.5975601 96.3305964,76.5975601 C102.387293,76.5975601 108.8309,79.8420431 112.292338,86.2796395 L106.233456,86.2796395 Z"/>
                <polygon points="116.52268 113.108678 116.52268 77.2739995 135.700488 77.2739995 135.700488 82.0683147 121.712104 82.0683147 121.712104 92.624224 135.700488 92.624224 135.700488 97.4201787 121.712104 97.4201787 121.712104 108.314909 135.700488 108.314909 135.700488 113.108678"/>
                <polygon points="161.999544 113.108678 144.404905 85.4078862 144.307084 85.4078862 144.307084 113.108678 139.114381 113.108678 139.114381 77.2739995 144.789084 77.2739995 162.097365 104.538149 162.191907 104.538149 162.191907 77.2739995 167.38461 77.2739995 167.38461 113.108678"/>
                <polygon points="175.269846 113.108678 175.269846 82.0683147 168.441512 82.0683147 168.441512 77.2739995 187.288696 77.2739995 187.288696 82.0683147 180.462002 82.0683147 180.462002 113.108678"/>
                <path d="M194.726907,97.4292503 L194.726907,84.1879125 L211.73954,97.3620327 L194.726907,97.4292503 Z M194.720349,77.2142141 L189.101388,77.2142141 L189.101388,113.400829 L194.726907,113.400829 L194.726907,102.483146 L218.3848,102.507738 L232.449692,113.400829 L240.479746,113.400829 L194.720349,77.2142141 Z"/>
                <path d="M45.7511995,97.4292503 L28.7418458,97.3620327 L45.7511995,84.1879125 L45.7511995,97.4292503 Z M45.7588503,77.2142141 L0,113.400829 L8.02896145,113.400829 L22.0949456,102.507738 L45.7511995,102.483146 L45.7511995,113.400829 L51.3778118,113.400829 L51.3778118,77.2142141 L45.7588503,77.2142141 Z"/>
                </g>

                <g fill="#00A160">
                <polygon points="109.62385 20.3450998 121.476569 20.3450998 95.4048503 41.0027891 95.4064898 31.6098005"/>
                <polygon points="139.130229 66.3372447 127.278603 66.3372447 153.349776 45.6812494 153.348683 55.0715057"/>
                <polygon points="139.131868 20.3450998 145.478202 25.3716712 101.700907 60.058293 95.4064898 55.0709592 95.4064898 43.4996803 124.629243 20.3450998"/>
                <polygon points="147.054265 26.6209365 153.349776 31.6098005 153.349776 43.1810794 124.12429 66.337354 109.62385 66.337354 103.276971 61.3080501"/>
                <polygon points="128.469941 17.3022698 143.00317 5.78563946 170.196823 5.78563946 155.66578 17.3022698"/>
                <polygon points="125.316721 2.32310884 128.249707 0 128.249707 14.9786145 125.316721 17.3022698"/>
                </g>   
</svg>