<svg fill="none" xmlns="http://www.w3.org/2000/svg" xmlns:xlink="http://www.w3.org/1999/xlink" viewBox="0 0 964 1079"><defs><path fill="#fff" d="M0 0h964v1079H0z" id="reuse-0"/></defs><g clip-path="url(#a)"><path d="M324.6 998.8c-4.9 0-9.1 1.9-12.6 5.6v-16.1c0-2.3-1.8-4.2-4.1-4.2s-4.1 1.8-4.1 4.2v46.9c0 2.3 1.8 4.2 4.2 4.2 2.4 0 4.1-1.8 4.1-4.2v-.7c3.5 3.5 7.8 5.3 12.6 5.3 9.2 0 18.9-7.2 18.9-20.6-.1-13.3-9.8-20.4-19-20.4Zm10.5 20.6c0 7.5-4.7 12.7-11.5 12.7-5.8 0-11.8-4.8-11.8-12.9 0-8.1 6.1-12.7 11.8-12.7 5.7 0 11.5 4.4 11.5 12.8v.1ZM384.5 999.2c-1.8 0-3.2 1-4 2.9l-10.1 25.8-11.4-25.7c-.8-2-2.2-3-4-3-2.3 0-4.2 1.8-4.2 4.1 0 .6.2 1.2.3 1.7l15.2 32.2c-2.1 4.7-3.8 5.7-6.1 5.7-1.6 0-2.5-.2-3.5-.5-.5-.2-1.1-.3-1.8-.3-2.1 0-3.8 1.7-3.8 3.7 0 1.6 1 3 2.6 3.6 1.7.6 3.6 1.2 6.5 1.2 6.3 0 10.2-3.3 13.5-11.2l14.4-34.5c.1-.4.3-1 .3-1.6.2-2.2-1.6-4.1-3.9-4.1ZM460.3 1011.7c3.1-2.1 5.9-5.6 5.9-11.4 0-3.5-1.2-6.5-3.6-8.9-3.2-3.1-8.1-4.8-13.9-4.8h-18.4c-2.3 0-4.2 1.9-4.2 4.2v44c0 2.3 1.9 4.2 4.2 4.2h19.3c11.8 0 19.4-5.9 19.4-15.1-.1-5.6-3-9.7-8.7-12.2Zm-25.9-17.3h13.7c6.1 0 9.6 2.5 9.6 6.8 0 6.7-7 7.4-10 7.4h-13.3v-14.2Zm15.3 36.8h-15.3v-14.7h14.2c5.4 0 11.8 1.2 11.8 7.2.1 4.7-4 7.5-10.7 7.5ZM522.3 986.2c-2.3 0-4.2 1.9-4.2 4.2v33.3l-27.6-35.2c-.8-1.1-1.9-2.2-4-2.2h-.7c-2.3 0-4.2 1.9-4.2 4.2v44.6c0 2.3 1.8 4.2 4.1 4.2s4.2-1.9 4.2-4.2v-34.3l28.3 36.2c.9 1 2.1 2.2 4.3 2.2 2.2 0 3.9-1.7 3.9-4.1v-44.8c0-2.2-1.9-4.1-4.1-4.1ZM562 986.6h-15.8c-2.3 0-4.1 1.9-4.1 4.2v44.3c0 2.3 1.8 4.2 4.1 4.2s4.3-1.9 4.3-4.2v-13.6h10.7c12.5 0 20.9-7.1 20.9-17.8-.1-10.4-8-17.1-20.1-17.1Zm-.8 27h-10.8v-19.1h11.1c3.6 0 11.9.9 11.9 9.5.1 5.9-4.7 9.6-12.2 9.6ZM639.2 986.6h-15.8c-2.3 0-4.2 1.9-4.2 4.2v44.3c0 2.3 1.9 4.2 4.2 4.2 2.3 0 4.2-1.9 4.2-4.2v-13.6h10.6c12.5 0 20.9-7.1 20.9-17.8.1-10.4-7.7-17.1-19.9-17.1Zm-.7 27h-10.8v-19.1h11.1c3.6 0 11.9.9 11.9 9.5 0 5.9-4.8 9.6-12.2 9.6ZM693.5 989.4c-.9-2.2-2.6-3.3-5.1-3.3-2.2 0-3.8 1.1-4.8 3.3l-20.1 44c-.3.7-.5 1.3-.5 2.1 0 2.2 1.7 3.9 4 3.9 1.8 0 3.2-1 4-2.7l4.8-10.7h25.4l4.8 10.5c.8 1.8 2.3 2.9 4 2.9 2.3 0 4.1-1.8 4.1-4.1 0-.6-.2-1.2-.5-2l-20.1-43.9Zm-14.4 28.6 9.2-20.6 9.3 20.6h-18.5ZM768.3 1002.7c0-4.2-1.5-8-4.2-10.7-3.5-3.5-8.8-5.4-15-5.4h-18.6c-2.3 0-4.2 1.9-4.2 4.2v44.3c0 2.3 1.9 4.2 4.2 4.2 2.3 0 4.2-1.9 4.2-4.2v-15.4h12.2l13.5 17.5c1 1.3 2.3 2.1 3.7 2.1 2.2 0 4.2-2 4.2-4.2 0-1.4-.7-2.3-1.2-2.9l-11-14.2c7.8-2.1 12.2-7.5 12.2-15.3Zm-19.8 9.2h-13.8v-17.3h13.9c7.2 0 11.3 3.1 11.3 8.5s-4.5 8.8-11.4 8.8ZM786.5 986.2c-2.3 0-4.2 1.9-4.2 4.2v44.7c0 2.3 1.9 4.2 4.2 4.2 2.3 0 4.2-1.9 4.2-4.2v-44.7c0-2.3-1.9-4.2-4.2-4.2ZM841 1011.7c3.1-2.1 5.9-5.6 5.9-11.4 0-3.5-1.2-6.5-3.7-8.9-3.2-3.1-8-4.8-13.9-4.8h-18.4c-2.3 0-4.1 1.9-4.1 4.2v44c0 2.3 1.9 4.2 4.1 4.2h19.3c11.8 0 19.4-5.9 19.4-15.1 0-5.5-2.9-9.6-8.6-12.2Zm-25.9-17.3h13.7c6.1 0 9.6 2.5 9.6 6.8 0 6.7-7 7.4-10 7.4h-13.3v-14.2Zm15.3 36.8h-15.3v-14.7h14.3c5.4 0 11.8 1.2 11.8 7.2 0 4.7-4.1 7.5-10.8 7.5ZM889.4 989.4c-.9-2.2-2.6-3.3-5.1-3.3-2.2 0-3.8 1.1-4.8 3.3l-20.1 44c-.4.9-.5 1.6-.5 2.1 0 2.2 1.8 3.9 4 3.9 1.8 0 3.3-1 4-2.7l4.8-10.7h25.4l4.8 10.5c.8 1.8 2.3 2.9 4.1 2.9 2.2 0 4.1-1.8 4.1-4.1 0-.6-.2-1.2-.4-2l-20.3-43.9Zm-14.3 28.6 9.2-20.6 9.2 20.6h-18.4ZM940.9 1008.7c-11.4-2.4-12.4-5.1-12.4-8.4 0-3.9 3.8-6.6 9.2-6.6 4.5 0 8.2 1.2 12 4 .7.6 1.5.8 2.5.8 2.3 0 4.1-1.8 4.1-4.1 0-1.3-.6-2.5-1.8-3.4-5-3.6-10.1-5.2-16.6-5.2-10.3 0-17.7 6.3-17.7 15.1 0 9.8 7.1 13.4 17.8 15.7 10.9 2.3 11.8 4.9 11.8 8.2 0 4.2-3.9 7-9.7 7-5.8 0-10.2-1.7-14.7-5.4a3.7 3.7 0 0 0-2.7-1.1c-2.3 0-4.1 1.8-4.1 4.2 0 1.3.6 2.5 1.6 3.2 6 4.8 12.2 7 19.6 7 10.8 0 18.4-6.4 18.4-15.6 0-8.1-5.2-12.7-17.3-15.4Z" fill="#464646"/><mask id="c" style="mask-type:alpha" maskUnits="userSpaceOnUse" x="0" y="0" width="964" height="1079"><mask id="b" style="mask-type:alpha" maskUnits="userSpaceOnUse" x="0" y="0" width="964" height="1080"><path d="M916.7 0H42.9C16 0 0 16.5 0 44.2v838.3c0 27.7 16.1 44.2 42.9 44.2h64.8c35.2 39.6 126.4 142.5 129.9 147.2 2.4 3.5 6.4 5.5 10.5 5.5 1.2 0 2.5-.2 3.7-.5 4.6-1.4 7.6-5.5 7.6-10.3V926.7h657.3c28.3 0 47.3-17.8 47.3-44.2V44.2C964 17.8 945 0 916.7 0Z" fill="#008BAC"/></mask><g mask="url(#b)"><use xlink:href="#reuse-0"/></g></mask><g mask="url(#c)"><mask id="d" style="mask-type:alpha" maskUnits="userSpaceOnUse" x="-158" y="-484" width="1281" height="1608"><path fill="#C4C4C4" d="M-158-484h1280.32v1607.95H-158z"/></mask><g mask="url(#d)"><path fill="url(#e)" d="M-158-484h1280v1608H-158z"/><g filter="url(#f)"><circle cx="1122.5" cy="-483.5" r="497.5" fill="#fff"/></g><g filter="url(#g)"><circle cx="217" cy="41" r="605" fill="#09D3DF"/></g><g filter="url(#h)"><circle cx="-78" cy="240" r="310" fill="#07D1DD"/></g></g></g><path d="M528.7 395.7c-13.5 0-28.3-5.8-40.9-16.2l-13 19.8c15.3 13.5 34.6 20.7 53 20.7 28.8 0 46.7-17.1 46.7-43.6 0-24.3-20.7-33.3-39.1-39.6-14.8-4.9-28.8-9.9-28.8-20.7 0-9 7.2-14.4 18-14.4s23.4 4.9 36 13.5l10.8-22.5c-14.8-9.9-31.5-15.3-45.9-15.3-26.5 0-44.5 17.1-44.5 41.8 0 26.1 20.2 35.1 39.1 40.9 14.8 4.5 28.3 9 28.3 19.8.1 9.9-7.6 15.8-19.7 15.8ZM869.7 395.7c-13.5 0-28.3-5.8-40.9-16.2l-13 19.8c15.3 13.5 34.6 20.7 53 20.7 28.8 0 46.7-17.1 46.7-43.6 0-24.3-20.7-33.3-39.1-39.6-14.8-4.9-28.8-9.9-28.8-20.7 0-9 7.2-14.4 18-14.4s23.4 4.9 36 13.5l10.8-22.5c-14.8-9.9-31.5-15.3-45.9-15.3-26.5 0-44.5 17.1-44.5 41.8 0 26.1 20.2 35.1 39.1 40.9 14.8 4.5 28.3 9 28.3 19.8.1 9.9-7.6 15.8-19.7 15.8ZM187.9 409.6l-11.7-27.9c-56.6 29.2-99.3-13-99.3-59.3 0-37.8 43.2-86.3 99.8-53l11.2-28.8c-79.6-40-142.5 25.2-142.5 81.8 0 68.3 66.6 124.1 142.5 87.2ZM138.9 537.7c-16.2 0-31.9 6.7-44.5 18.9v-67.4H67.9v191h23.4l3.1-10.3c12.6 6.7 27 10.3 44.5 10.3 33.3 0 66.1-22 66.1-71.5 0-43.1-26.5-71-66.1-71Zm-4.9 120c-17.5 0-31.5-7.6-38.7-21.1V606c0-25.2 17.1-43.2 40.9-43.2 23.8 0 41.8 18.9 41.8 44.1.1 27.9-19.7 50.8-44 50.8ZM324.1 345.8c0-40.5-28.3-71.5-65.2-71.5-36.9 0-66.1 31.5-66.1 71.9 0 40.4 28.3 71.5 65.2 71.5 37.4 0 66.1-31 66.1-71.9Zm-103.3 0c0-26.1 15.3-45.4 37.3-45.4 22 0 38.7 19.8 38.7 45.4 0 25.6-15.7 45-37.8 45-21.6-.1-38.2-19.9-38.2-45ZM278.7 537.7c-19.8 0-34.6 4.9-48.1 11.2l7.6 22c10.8-5.4 23.4-8.1 36.4-8.1 22.5 0 32.8 9.4 32.8 31.9l-1.8 1.3c-9.4-3.1-19.8-5.8-35.1-5.8-31.9 0-51.2 18.4-51.2 48.1 0 24.3 19.3 41.8 47.2 41.8 14.4 0 28.8-4.5 40.9-9.9l3.1 9.9h23.8v-85c.2-36.3-20.5-57.4-55.6-57.4Zm28.8 95.3c-3.6 23.4-28.3 25.6-36.4 25.6-16.2 0-27.4-9-27.4-22.5 0-14.4 14.8-25.6 33.7-25.6 11.7 0 22.5 2.7 30.1 5.8V633ZM366.8 342.6c0-24.3 13.9-41.8 34.6-41.8 20.7 0 33.3 13.9 33.3 38.2v78.7h25.6v-88.6c0-33.3-17.5-52.1-46.7-52.1-22 0-40 7.2-47.6 21.1v-.4c.4-4.5.9-10.3.9-17.5h-26.1v137.6h26.1l-.1-75.2ZM434.7 540c-22 0-40 7.2-47.6 21.1v-.4c.4-4.5.9-10.3.9-18h-26.1v137.6H388v-75.1c0-24.3 14.4-41.8 34.6-41.8 20.2 0 33.3 14.4 33.3 38.2v78.7h25.6v-88.1c0-33.4-17.6-52.2-46.8-52.2ZM629.8 542.7h-35.5l-58.4 63.8V492.3h-27.5v187.9h27.5v-39.1l20.2-22 42.2 61.1h32.4l-56.6-79.1 55.7-58.4ZM693.6 656.8h-26.5v23.4h26.5v-23.4ZM693.6 492.3h-26.5v142.5h26.5V492.3ZM653.6 274.3c-36.9 0-65.6 31.5-65.6 71.9 0 40.4 28.3 71.5 65.2 71.5 36.9 0 66.1-31.5 66.1-71.9 0-40.4-28.8-71.5-65.7-71.5Zm0 116.4c-21.6 0-38.2-20.2-38.2-45 0-26.1 15.7-45.4 37.8-45.4 22.1 0 38.7 19.8 38.7 45.4-.1 26.1-15.8 45-38.3 45ZM807.8 277c-16.6 0-29.7 7.6-40.5 24.3l-.9 1.3-2.7-.4v-22h-26.5v137.6h26.5v-59.3c0-30.6 13-52.1 32.4-52.1 5.8 0 10.3 0 14.4 2.2v-31h-.9c-.6-.4-1.2-.6-1.8-.6Z" fill="#fff"/></g><defs><filter id="f" x="271" y="-1335" width="1703" height="1703" filterUnits="userSpaceOnUse" color-interpolation-filters="sRGB"><feFlood flood-opacity="0" result="BackgroundImageFix"/><feBlend in="SourceGraphic" in2="BackgroundImageFix" result="shape"/><feGaussianBlur stdDeviation="177" result="effect1_foregroundBlur_2_2"/></filter><filter id="g" x="-1142" y="-1318" width="2718" height="2718" filterUnits="userSpaceOnUse" color-interpolation-filters="sRGB"><feFlood flood-opacity="0" result="BackgroundImageFix"/><feBlend in="SourceGraphic" in2="BackgroundImageFix" result="shape"/><feGaussianBlur stdDeviation="377" result="effect1_foregroundBlur_2_2"/></filter><filter id="h" x="-812" y="-494" width="1468" height="1468" filterUnits="userSpaceOnUse" color-interpolation-filters="sRGB"><feFlood flood-opacity="0" result="BackgroundImageFix"/><feBlend in="SourceGraphic" in2="BackgroundImageFix" result="shape"/><feGaussianBlur stdDeviation="212" result="effect1_foregroundBlur_2_2"/></filter><linearGradient id="e" x1="482" y1="1124" x2="367.86" y2="-475.86" gradientUnits="userSpaceOnUse"><stop stop-color="#007AA1"/><stop offset="1" stop-color="#16D5E3"/></linearGradient><clipPath id="a"><use xlink:href="#reuse-0"/></clipPath></defs></svg>