<svg aria-hidden="true" width="134" height="24" xmlns="http://www.w3.org/2000/svg" viewBox="0 0 246 44">
            <path d="M54.2 11.4c-9.1 0-15.6 6.3-15.6 15.7 0 9.5 7.1 16.3 16.6 16.3 6.7 0 10.3-3.3 11.8-4.5.6-.4.8-1.1.8-1.7 0-1.4-1.3-2.6-2.4-2.6-.8 0-1.3.6-2.2 1.2-1.4 1.2-3.3 2.8-7.9 2.8-6.7 0-11.4-4.9-11.4-11.5s4-10.9 10.3-10.9c5.9 0 8.9 3.1 9 7.8h-15c-1.6 0-2.4 1.2-2.4 2.4 0 1.3.8 2.5 2.4 2.5h17.7c1.7 0 2.6-.8 2.6-2.3v-2.2c0-7.7-6-13-14.3-13m-32.4 0c-2.4 0-7.7.8-7.7 3.6 0 1.4.9 2.4 2.3 2.4.4 0 .6-.1 1-.2 1.6-.6 2.9-1.1 4.3-1.1 4.9 0 8 4.7 8 11.2 0 7.3-4.3 11.2-9 11.2-2.4 0-5.2-1.3-7.3-3.4V4c0-1.2-.8-2.4-2.4-2.4H6.4C4.8 1.5 4 2.8 4 4c0 1.3.8 2.5 2.4 2.5h1.8v34.2c0 1.5 1.3 2.3 2.6 2.3 1.2 0 2.4-.7 2.6-1.9 2.4 1.5 5.1 2.3 7.7 2.3 7.3 0 13.9-6.4 13.9-16-.1-11.5-6.2-16-13.2-16m187.9 26.5h-1.9V21.7c0-7.1-5.1-10.3-10.5-10.3-3.2 0-6.7 1.3-8.9 3.5v-.2c0-1.2-.8-2.5-2.4-2.5h-4.2c-1.6 0-2.4 1.3-2.4 2.5 0 1.3.8 2.5 2.4 2.5h1.8v23.6c0 1.5 1.3 2.3 2.6 2.3s2.6-.8 2.6-2.3V20.1c1.5-2.3 4.9-3.9 7.8-3.9 3.1 0 6.1 1.7 6.1 5.8v18.3c0 1.3.8 2.5 2.4 2.5h4.6c1.6 0 2.4-1.2 2.4-2.5-.1-1.2-.8-2.4-2.4-2.4m30.2 0H238l-6.9-12 8.8-11.6c.3-.4.5-1 .5-1.5 0-1.3-1.1-2.5-2.5-2.5-.8 0-1.6.4-2 1l-7.5 10.2c-.5.6-1 .8-2.2.8h-4.7V4c0-1.2-.8-2.4-2.3-2.4h-4.7c-1.6 0-2.3 1.2-2.3 2.4 0 1.3.7 2.5 2.3 2.5h1.9v34.2c0 1.5 1.3 2.3 2.6 2.3s2.6-.8 2.6-2.3V27.2h4.7l7.5 13.2c.8 1.4 1.5 2.4 3.1 2.4h3.1c1.6 0 2.4-1.2 2.4-2.5-.2-1.2-.9-2.4-2.5-2.4M132.8 11.4c-2.4 0-7.7.8-7.7 3.6 0 1.4.9 2.4 2.3 2.4.4 0 .6-.1 1-.2 1.6-.6 2.9-1.1 4.3-1.1 4.9 0 8 4.7 8 11.2 0 7.3-4.3 11.2-9 11.2-2.4 0-5.2-1.3-7.3-3.4V4c0-1.2-.8-2.4-2.4-2.4h-4.6c-1.6 0-2.4 1.2-2.4 2.4 0 1.3.8 2.5 2.4 2.5h1.8v34.2c0 1.5 1.3 2.3 2.6 2.3 1.1 0 2.4-.7 2.6-1.9 2.4 1.5 5.1 2.3 7.7 2.3 7.3 0 13.9-6.4 13.9-16 0-11.5-6.2-16-13.2-16M177 37.9h-1.8V23.6c0-8.5-3.8-12.2-11.9-12.2-6.5 0-11.8 2.6-11.8 8.2 0 1.5 1.3 2.3 2.5 2.3 1.3 0 2.6-.8 2.6-2.3 0-2.8 3.1-3.4 6.6-3.4 4.1 0 6.8 1.5 6.8 7.4v11.1c-1.6 1.4-5.7 3.9-9.8 3.9-2.7 0-5.3-.9-5.3-3.7 0-4.7 5.2-4.9 11-5.6 1.5-.2 2.1-.8 2-2.5-.1-1.3-1-2-2.5-1.9-10.4.9-15.9 3.6-15.9 10.1 0 5.7 4.8 8.4 10.3 8.4 3.8 0 7.9-1.9 10.2-3.4v.4c0 1.3.8 2.5 2.4 2.5h4.5c1.6 0 2.4-1.2 2.4-2.5.1-1.3-.7-2.5-2.3-2.5" style="fill:#572381"></path>
            <path d="M93.3 2.3c-11.8 0-20.8 8.8-20.8 20.7 0 11.9 9.1 20.4 20.8 20.4 11.7 0 20.8-8.6 20.8-20.4 0-3.4-.7-9.8-4.4-9.8-1.8 0-3 1.4-3 3 0 .4.1.8.2 1.1.8 1.8 1.1 3.8 1.1 5.8 0 8.6-6.5 14.5-14.8 14.5s-14.8-5.9-14.8-14.5S85 8.3 93.3 8.3c1.5 0 2.4.3 3.2.6.5.1.8.2 1.4.2 1.8 0 2.7-1.5 2.7-3.1 0-2.8-3.4-3.7-7.3-3.7" style="fill:#e41930"></path>
        </svg>