<svg width="90" height="90" viewBox="0 0 1921 1921" fill="none" xmlns="http://www.w3.org/2000/svg">
  <path d="M1813.46 1.87895L98.577 282.661C39.7135 292.313 0.5 327.906 0.5 388.579V1529.72C0.5 1590.39 45.7464 1625.47 104.696 1637.19L1813.46 1919.09C1872.32 1928.83 1920.5 1887.12 1920.5 1826.44V94.6972C1920.5 39.8853 1881.2 0.5 1830.18 0.5C1824.75 0.5 1819.15 0.930943 1813.46 1.87895Z" fill="url(#paint0_linear_517_10834)"/>
  <path d="M431.921 922.14L537.201 642.02H671.621L486.441 1081H376.461L191.281 642.02H324.761L431.921 922.14ZM1054.02 695.6V403.26H1177.16V1081H1054.02V1026.48C1023 1071.6 961.905 1092.28 913.025 1092.28C800.225 1092.28 697.765 1002.04 697.765 861.04C697.765 720.04 800.225 630.74 913.025 630.74C963.785 630.74 1023 650.48 1054.02 695.6ZM936.525 977.6C996.685 977.6 1050.26 927.78 1050.26 861.04C1050.26 793.36 993.865 745.42 936.525 745.42C874.485 745.42 822.785 796.18 822.785 861.04C822.785 924.96 874.485 977.6 936.525 977.6ZM1519.57 835.66L1729.19 1081H1575.97L1421.81 891.12V1081H1298.67V403.26H1421.81V776.44L1532.73 642.02H1690.65L1519.57 835.66Z" fill="white"/>
  <path d="M657.602 1265.78C711.106 1265.78 754.996 1306.32 754.996 1368.19C754.996 1429.63 710.688 1471.02 657.184 1471.02C629.178 1471.02 600.754 1457.64 587.796 1435.49V1466H551.43V1164.62H587.796V1301.31C600.754 1278.32 628.342 1265.78 657.602 1265.78ZM653.84 1436.74C689.788 1436.74 718.212 1406.64 718.212 1367.77C718.212 1328.48 689.788 1300.05 653.84 1300.05C622.072 1300.05 587.796 1325.55 587.796 1367.77C587.796 1409.57 619.146 1436.74 653.84 1436.74ZM959.147 1301.31V1270.79H995.513V1466H959.147V1431.31C946.189 1454.71 919.019 1471.02 887.669 1471.02C836.673 1471.02 791.947 1427.96 791.947 1368.19C791.947 1310.5 834.165 1265.78 889.341 1265.78C918.601 1265.78 946.189 1278.32 959.147 1301.31ZM893.103 1436.74C927.797 1436.74 959.147 1407.9 959.147 1368.19C959.147 1328.06 925.289 1300.05 892.685 1300.05C857.155 1300.05 828.731 1331.4 828.731 1368.19C828.731 1405.39 857.155 1436.74 893.103 1436.74ZM1159.96 1265.78C1208.45 1265.78 1238.97 1298.38 1238.55 1353.14V1466H1202.18V1355.23C1202.18 1322.63 1182.12 1301.73 1154.95 1301.73C1127.78 1301.73 1095.17 1318.03 1095.17 1360.25V1466H1058.81V1270.79H1095.17V1300.47C1106.88 1276.65 1138.65 1265.78 1159.96 1265.78ZM1369.88 1355.23L1473.96 1466H1425.06L1335.19 1370.7V1466H1298.82V1164.62H1335.19V1339.76L1402.9 1270.79H1453.48L1369.88 1355.23Z" fill="white"/>
  <defs>
    <linearGradient id="paint0_linear_517_10834" x1="579.13" y1="1841.6" x2="1480.42" y2="-175.615" gradientUnits="userSpaceOnUse">
      <stop stop-color="#E30613"/>
      <stop offset="0.18" stop-color="#E52811"/>
      <stop offset="0.35" stop-color="#E7430F"/>
      <stop offset="0.45" stop-color="#E84E0F"/>
      <stop offset="0.61" stop-color="#EE700A"/>
      <stop offset="0.87" stop-color="#F7A502"/>
      <stop offset="1" stop-color="#FBBA00"/>
    </linearGradient>
  </defs>
</svg>
