<svg width="157" height="40" viewBox="0 0 157 40" fill="none" xmlns="http://www.w3.org/2000/svg">
<path d="M151.563 28.1966C152.662 28.1966 153.406 28.9508 153.406 30.6025V32.812H146.714V30.5866C146.714 29.2482 147.468 28.6374 148.307 28.6374C148.623 28.6287 148.932 28.7252 149.187 28.9118C149.442 29.0983 149.627 29.3643 149.715 29.6678C149.792 29.2405 150.023 28.8559 150.363 28.5854C150.702 28.3148 151.129 28.1767 151.563 28.1966ZM147.42 32.01H149.507V30.6875C149.507 29.8856 149.056 29.4447 148.445 29.4447C147.834 29.4447 147.441 29.859 147.441 30.6716L147.42 32.01ZM151.446 28.988C150.665 28.988 150.139 29.5191 150.139 30.6132V32.01H152.699V30.6344C152.699 29.4766 152.232 28.988 151.446 28.988Z" fill="#151631"/>
<path d="M151.828 22.7951V26.2473L153.422 26.9165V27.761L146.73 24.8823V24.1547L153.422 21.2761V22.1259L151.828 22.7951ZM151.159 23.0712L147.744 24.5159L151.159 25.9605V23.0712Z" fill="#151631"/>
<path d="M146.714 20.267V19.4757L152.067 15.6411V15.572H146.714V14.7807H153.406V15.572L148.063 19.4066V19.4757H153.416V20.267H146.714Z" fill="#151631"/>
<path d="M150.288 11.0364L151.35 12.0137H153.416V12.805H146.724V12.0349H150.309L146.724 8.7739V7.78072L149.757 10.5637L153.416 7.5311V8.46585L150.288 11.0364Z" fill="#151631"/>
<path d="M69.8409 25.6579C69.8409 29.8059 66.8454 32.8066 60.5995 32.8066H51.0396V7.53641H59.8985C65.098 7.53641 67.8651 10.5319 67.8651 13.9628C67.8686 14.9927 67.5681 16.0006 67.0013 16.8604C66.4344 17.7201 65.6264 18.3934 64.6785 18.796C66.1706 19.2184 67.4832 20.1181 68.4155 21.3574C69.3478 22.5966 69.8485 24.1071 69.8409 25.6579ZM56.8446 12.5873V17.2823H59.4417C61.2475 17.2823 62.0973 16.2201 62.0973 14.8286C62.0973 13.437 61.0882 12.5873 59.3567 12.5873H56.8446ZM63.9933 24.6435C63.9933 23.0501 63.0905 21.7224 60.0578 21.7224H56.8446V27.7505H60.2756C62.8727 27.7505 63.9933 26.5236 63.9933 24.6435Z" fill="#151631"/>
<path d="M83.1611 12.8422V17.6222H91.5738V22.5668H83.1611V32.812H77.3507V7.53641H93.4168V12.8475L83.1611 12.8422Z" fill="#151631"/>
<path d="M120.721 20.1714C120.721 27.9309 114.725 33.1676 107.576 33.1676C100.428 33.1676 94.4207 27.9309 94.4207 20.1714C94.4207 12.4118 100.417 7.17508 107.56 7.17508C114.704 7.17508 120.721 12.4065 120.721 20.1714ZM114.688 20.1714C114.688 15.7313 111.66 12.6243 107.576 12.6243C103.492 12.6243 100.502 15.7313 100.502 20.1714C100.502 24.6114 103.497 27.7131 107.576 27.7131C111.655 27.7131 114.688 24.6114 114.688 20.1714Z" fill="#151631"/>
<path d="M131.715 24.5373H128.613V32.812H122.803V7.53641H131.789C137.456 7.53641 141.211 10.9621 141.211 16.236C141.211 19.5926 139.618 22.1207 136.963 23.4166L143.017 32.812H136.878L131.715 24.5373ZM128.613 19.5926H131.428C133.776 19.5926 135.401 18.7641 135.401 16.236C135.401 13.7079 133.776 12.8794 131.428 12.8794H128.613V19.5926Z" fill="#151631"/>
<path d="M35.4737 14.6737C35.6671 13.9266 35.8008 13.156 35.8008 12.3471C35.8008 7.06626 31.5922 2.78564 26.4006 2.78564C24.3706 2.78564 22.4961 3.44703 20.9595 4.55954C19.4224 3.44703 17.548 2.78564 15.5174 2.78564C10.3259 2.78564 6.11719 7.06626 6.11719 12.3471C6.11719 13.1565 6.25141 13.9266 6.44431 14.6737C5.96818 15.1575 5.53389 15.6663 5.13992 16.196C3.59975 18.2679 2.71484 20.669 2.71484 23.2319C2.71484 31.0358 10.8831 37.3623 20.959 37.3623C31.0349 37.3623 39.2032 31.0358 39.2032 23.2319C39.2032 20.0143 37.812 17.0493 35.4737 14.6737ZM32.6164 25.633C31.0221 27.3803 27.2763 30.5153 20.9233 30.5153C14.5702 30.5153 10.7647 27.3793 9.20467 25.6319C8.69995 25.0665 8.88316 24.177 9.57108 23.858C11.6109 22.9129 15.9272 21.2391 20.9228 21.2391C25.9184 21.2391 30.2112 22.9037 32.2576 23.8504C32.9502 24.1709 33.1303 25.0691 32.6159 25.633H32.6164Z" fill="#0028E2"/>
</svg>
